<?xml version="1.0" encoding="UTF-8"?>
<svg width="180" height="42" viewBox="0 0 180 42" fill="none" xmlns="http://www.w3.org/2000/svg">
    <rect x="1" y="1" width="178" height="40" rx="12" fill="url(#paint0_linear)" stroke="rgba(255,255,255,0.2)" stroke-width="2"/>
    <path d="M35 12C27.8203 12 22 17.8203 22 25C22 32.1797 27.8203 38 35 38C42.1797 38 48 32.1797 48 25C48 17.8203 42.1797 12 35 12ZM35 34.2C29.7734 34.2 25.8 30.2266 25.8 25C25.8 19.7734 29.7734 15.8 35 15.8C40.2266 15.8 44.2 19.7734 44.2 25C44.2 30.2266 40.2266 34.2 35 34.2Z" fill="#ffffff"/>
    <path d="M35 19.8C31.9196 19.8 29.4 22.3196 29.4 25.4C29.4 28.4804 31.9196 31 35 31C38.0804 31 40.6 28.4804 40.6 25.4C40.6 22.3196 38.0804 19.8 35 19.8ZM35 28.2C33.2308 28.2 31.8 26.7692 31.8 25C31.8 23.2308 33.2308 21.8 35 21.8C36.7692 21.8 38.2 23.2308 38.2 25C38.2 26.7692 36.7692 28.2 35 28.2Z" fill="#93c5fd"/>
    <text x="61" y="27" fill="#ffffff" font-family="Segoe UI, sans-serif" font-size="16" font-weight="600">Global English</text>
    <defs>
        <linearGradient id="paint0_linear" x1="0" y1="0" x2="200" y2="60" gradientUnits="userSpaceOnUse">
            <stop stop-color="#1e3a8a"/>
            <stop offset="1" stop-color="#2563eb"/>
        </linearGradient>
    </defs>
</svg>
